inDegrees=no
num_controls=7
num_derivatives=13
num_iterations=31
num_multipliers=7
num_parameters=0
num_slacks=7
num_states=26
objective=0.424563
objective_accelerations=0.062914
objective_balance=0.001174
objective_effort=0.016644
objective_height=0.337932
objective_ligament=0.005899
solver_duration=427.875170
status=Solve_Succeeded
success=true
DataType=double
version=3
OpenSimVersion=4.5
endheader
time	/jointset/ground_pelvis/pelvis_tilt/value	/jointset/ground_pelvis/pelvis_tx/value	/jointset/ground_pelvis/pelvis_ty/value	/jointset/hip_l/hip_flexion_l/value	/jointset/hip_l/hip_adduction_l/value	/jointset/hip_l/hip_rotation_l/value	/jointset/back/lumbar_extension/value	/jointset/patellofemoral_l/patellar_flexion_l/value	/jointset/knee_l/knee_flexion_l/value	/jointset/knee_l/knee_adduction_l/value	/jointset/knee_l/knee_rotation_l/value	/jointset/ankle_l/ankle_angle_l/value	/jointset/subtalar_l/subtalar_angle_l/value	/jointset/ground_pelvis/pelvis_tilt/speed	/jointset/ground_pelvis/pelvis_tx/speed	/jointset/ground_pelvis/pelvis_ty/speed	/jointset/hip_l/hip_flexion_l/speed	/jointset/hip_l/hip_adduction_l/speed	/jointset/hip_l/hip_rotation_l/speed	/jointset/back/lumbar_extension/speed	/jointset/patellofemoral_l/patellar_flexion_l/speed	/jointset/knee_l/knee_flexion_l/speed	/jointset/knee_l/knee_adduction_l/speed	/jointset/knee_l/knee_rotation_l/speed	/jointset/ankle_l/ankle_angle_l/speed	/jointset/subtalar_l/subtalar_angle_l/speed	/forceset/tau_hip_flexion_l	/forceset/tau_hip_adduction_l	/forceset/tau_hip_rotation_l	/forceset/tau_knee_flexion_l	/forceset/tau_ankle_angle_l	/forceset/tau_subtalar_angle_l	/forceset/tau_lumbar_extension	lambda_cid13_p0	lambda_cid13_p1	lambda_cid13_p2	lambda_cid13_p3	lambda_cid13_p4	lambda_cid13_p5	lambda_cid14_p0	/jointset/ground_pelvis/pelvis_tilt/accel	/jointset/ground_pelvis/pelvis_tx/accel	/jointset/ground_pelvis/pelvis_ty/accel	/jointset/hip_l/hip_flexion_l/accel	/jointset/hip_l/hip_adduction_l/accel	/jointset/hip_l/hip_rotation_l/accel	/jointset/back/lumbar_extension/accel	/jointset/patellofemoral_l/patellar_flexion_l/accel	/jointset/knee_l/knee_flexion_l/accel	/jointset/knee_l/knee_adduction_l/accel	/jointset/knee_l/knee_rotation_l/accel	/jointset/ankle_l/ankle_angle_l/accel	/jointset/subtalar_l/subtalar_angle_l/accel	gamma_cid13_p0	gamma_cid13_p1	gamma_cid13_p2	gamma_cid13_p3	gamma_cid13_p4	gamma_cid13_p5	gamma_cid14_p0
1	-0.4828545190527864	-0.009147256862877916	0.565903105753515	1.80629755475479	-0.3419326351715866	0.1607587642777806	-0.4361578184872129	1.577857168721607	1.577857168721663	0.06678688099852353	-0.1741621722963955	0.434770331620062	0.2562970155562286	-0.137119360356469	0.004291699185858353	0.05095977421262041	-0.0294669466420187	-0.006457451771362646	-0.0551832801776505	-0.002789314220785754	-0.1945255369701066	-0.1945255369701229	-0.02906186480147843	-0.0005165799838239996	-0.04562371694995384	-0.03863922033136594	-0.2523526473066208	0.0799760732137947	-0.01293546908224868	-0.3018734097302363	-0.008462302535436315	-0.02032748520661894	0.2162576867927613	-40.12275911836293	27.52049211013632	-17.99511898957745	2.922859652798219	-549.6782991811104	-28.28500313002863	-0.02325515781336186	1.397740472050934	0.2514740242268584	2.189111717389045	-7.072553127188378	-0.3316330590654578	-1.679098451031165	-0.03081504926717765	-5.86935898410256	-5.869358984102774	-0.9601844515288523	-0.03068015504787273	-0.7082168497271882	-0.9599296680790146	-6.668340412727659e-09	-1.563021496637602e-07	-9.17451227546912e-08	-1.728826174846586e-08	-1.11115285144731e-08	-2.101219805240205e-07	6.835056427391294e-09
1.01	-0.4841563689609541	-0.009091703836727114	0.5665219267132204	1.805650200187399	-0.3420131100849813	0.1601250956966159	-0.4361861986717728	1.575618881234134	1.575618881234176	0.0664471249003268	-0.1741672895634656	0.4342786726595899	0.2558637568120842	-0.1232215715388063	0.006832117081588514	0.07279312665679406	-0.100005966358914	-0.009630416057245168	-0.0715462500352415	-0.002874996048827863	-0.2531201301947746	-0.2531201301947772	-0.03887584589510549	-0.0005051961116183253	-0.05271953838545363	-0.0480017473353337	-0.2528633386271833	0.07992787796288506	-0.01289864220910582	-0.3007458298268316	-0.008982401388275505	-0.02025599218616554	0.2165691258168723	-40.23109155348887	27.43750942262147	-17.90090288222694	2.80338220897928	-549.4824778910872	-28.2186077748338	-0.02327177698477273	1.390154482551215	0.2573017321238459	2.178750180455109	-7.044877490931961	-0.3090408397461722	-1.614275402684938	0.004314248673225353	-5.852736747761359	-5.852736747758823	-0.9899906340554249	0.01726147365285557	-0.7119945006762093	-0.9227505582541309	-6.874921642579114e-09	-1.985603520456837e-07	-1.2360637348325e-07	-2.787660382625307e-08	-1.578709727593043e-08	-2.647990097289218e-07	9.007850784262653e-09
1.02	-0.4853183697017697	-0.009010351419641106	0.5673587418318689	1.804297395203437	-0.3421250971865125	0.1593279215869145	-0.4362150838749517	1.572795002363192	1.572795002363218	0.06600963185201836	-0.1741722502287147	0.433715709542729	0.2553372055295596	-0.1091495268840938	0.009451577372898996	0.0945586060018002	-0.170557029955468	-0.0127598893989466	-0.08788438587532001	-0.002890317947057719	-0.3116438136639565	-0.3116438136639438	-0.04860925481977636	-0.000485259627486766	-0.05988454822954665	-0.05729772800724326	-0.2533740299477671	0.07987968271183053	-0.0128618153360731	-0.2996182499234739	-0.009502500241170338	-0.02018449916598118	0.2168805648409325	-40.34065976765955	27.35216880647985	-17.80337005684473	2.67235776928706	-549.3878522909894	-28.14923070369974	-0.0232897549614317	1.432591639460463	0.2672825033432805	2.175537097555573	-7.074961903120323	-0.3229348702293568	-1.674131647528625	-0.01674306330400368	-5.855177033005186	-5.855177033005075	-0.9440700177376754	-0.02896963266264927	-0.722054531445082	-0.9466204016670872	-7.40968727946995e-09	-2.362768497994319e-07	-1.463695330821806e-07	-3.739487913257042e-08	-2.03195774251783e-08	-3.041775600852273e-07	9.273412214532469e-09
1.03	-0.4863388302009361	-0.008902372146608563	0.5684127592541489	1.802239328045101	-0.3422680989758969	0.1583673043437804	-0.4362435093368807	1.569386370127035	1.569386370127073	0.06547553234126641	-0.1741769553839946	0.4330806520205802	0.2547180907790522	-0.09491822310370034	0.01216124593571426	0.1162224350793059	-0.2410287474062152	-0.01582822319318662	-0.104239438643831	-0.002757467435584087	-0.3700577981896604	-0.3700577981896568	-0.05818069764800109	-0.0004542031914507676	-0.06714801022701508	-0.06650989319928621	-0.2537384920414983	0.07986434354018486	-0.01279810855670045	-0.2982007052833127	-0.01008439408994591	-0.02007854978631265	0.2171202696103624	-40.44191552320743	27.23407233835594	-17.68195572101148	2.53066955396917	-548.9986820416259	-28.06734933041765	-0.02331495023508196	1.422050073189531	0.2753449010029367	2.158434309185637	-7.029130814690695	-0.2969175884349959	-1.616259945592195	0.03389516130501393	-5.830785760713977	-5.83078576071511	-0.9592074970031419	0.01932720159009411	-0.7316640883638625	-0.9061512130535767	-7.947801736840782e-09	-2.739470036284029e-07	-1.69039855016523e-07	-4.690223539019929e-08	-2.485059748654647e-08	-3.434000035145062e-07	9.519512084326747e-09
